<svg width="410" height="404" viewBox="0 0 410 404" fill="none" xmlns="http://www.w3.org/2000/svg">
<path d="M399.641 59.5246L215.643 388.545C211.844 395.338 202.084 395.378 198.228 388.618L10.5817 59.5563C6.38087 52.1896 12.6802 43.2665 21.0281 44.7586L205.223 77.6824C206.398 77.8924 207.601 77.8904 208.776 77.6763L389.119 44.8058C397.439 43.2894 403.768 52.1436 399.641 59.5246Z" fill="url(#paint0_linear)"/>
<path d="M292.965 1.5744L156.801 28.2552C155.563 28.5003 154.414 29.0974 153.498 29.9716C152.582 30.8457 151.937 31.9631 151.63 33.1933L99.9653 238.062C99.1775 241.121 101.889 243.792 104.787 243.111L180.237 225.062C183.294 224.357 186.196 227.066 185.525 229.964L170.288 296.085C169.599 299.05 172.487 301.744 175.424 301.047L212.947 292.131C215.889 291.434 218.781 294.136 218.089 297.101L201.24 369.724C200.422 373.207 205.356 375.214 207.222 372.228L208.579 370.045L357.452 106.222C359.312 102.841 356.329 98.766 352.518 99.4868L275.978 113.872C273.019 114.424 270.644 111.625 271.577 108.742L298.508 24.8664C299.461 21.9202 296.998 19.0487 294.005 19.6504L217.322 34.9626C214.324 35.5654 211.866 32.6867 212.839 29.7396L226.091 0.898087C226.999 -1.65697 224.867 -4.3452 222.209 -3.81843Z" fill="url(#paint1_linear)"/>
<defs>
<linearGradient id="paint0_linear" x1="6.00017" y1="32.9999" x2="235" y2="344" gradientUnits="userSpaceOnUse">
<stop stop-color="#41D1FF"/>
<stop offset="1" stop-color="#BD34FE"/>
</linearGradient>
<linearGradient id="paint1_linear" x1="194.651" y1="8.81818" x2="236.076" y2="292.989" gradientUnits="userSpaceOnUse">
<stop stop-color="#FFEA83"/>
<stop offset="0.0833333" stop-color="#FFDD35"/>
<stop offset="1" stop-color="#FFA800"/>
</linearGradient>
</defs>
</svg>
